HIERARCHY
ROOT pelvis
{
  OFFSET 8.7141 87.0142 -67.1449
  CHANNELS 6 Xposition Yposition Zposition Zrotation Xrotation Yrotation
  JOINT lfemur
  {
    OFFSET 0 11.9945 0
    CHANNELS 3 Zrotation Xrotation Yrotation
    JOINT ltibia
    {
      OFFSET 0 0 -41.4872
      CHANNELS 3 Zrotation Xrotation Yrotation
      JOINT lfoot
      {
        OFFSET 0 0 -39.7538
        CHANNELS 3 Zrotation Xrotation Yrotation
        JOINT ltoes
        {
          OFFSET 15.4382 0 0
          CHANNELS 3 Zrotation Xrotation Yrotation
          End Site
          {
            OFFSET 0 0 0
          }
        }
      }
    }
  }
  JOINT rfemur
  {
    OFFSET 0 -11.9945 0
    CHANNELS 3 Zrotation Xrotation Yrotation
    JOINT rtibia
    {
      OFFSET 0 0 -41.4872
      CHANNELS 3 Zrotation Xrotation Yrotation
      JOINT rfoot
      {
        OFFSET 0 0 -39.7538
        CHANNELS 3 Zrotation Xrotation Yrotation
        JOINT rtoes
        {
          OFFSET 15.4382 0 0
          CHANNELS 3 Zrotation Xrotation Yrotation
          End Site
          {
            OFFSET 0 0 0
          }
        }
      }
    }
  }
  JOINT thorax
  {
    OFFSET 1.67697 -2.25305 8.98052
    CHANNELS 3 Zrotation Xrotation Yrotation
    JOINT head
    {
      OFFSET 4.64946 -2.7802 47.6674
      CHANNELS 3 Zrotation Xrotation Yrotation
      End Site
      {
        OFFSET 0 0 0
      }
    }
    JOINT lclavicle
    {
      OFFSET 0 0 42.6193
      CHANNELS 3 Zrotation Xrotation Yrotation
      JOINT lhumerus
      {
        OFFSET 0 19.157 -2.10407
        CHANNELS 3 Zrotation Xrotation Yrotation
        JOINT lradius
        {
          OFFSET 0 0 -26.2788
          CHANNELS 3 Zrotation Xrotation Yrotation
          JOINT lhand
          {
            OFFSET 0 0 -26.6372
            CHANNELS 3 Zrotation Xrotation Yrotation
            End Site
            {
              OFFSET 0 0 0
            }
          }
        }
      }
    }
    JOINT rclavicle
    {
      OFFSET 0 0 42.6193
      CHANNELS 3 Zrotation Xrotation Yrotation
      JOINT rhumerus
      {
        OFFSET 0 -19.157 -2.10407
        CHANNELS 3 Zrotation Xrotation Yrotation
        JOINT rradius
        {
          OFFSET 0 0 -26.2788
          CHANNELS 3 Zrotation Xrotation Yrotation
          JOINT rhand
          {
            OFFSET 0 0 -26.6372
            CHANNELS 3 Zrotation Xrotation Yrotation
            End Site
            {
              OFFSET 0 0 0
            }
          }
        }
      }
    }
  }
}
MOTION
Frames:	10
Frame Time:	0.0333333
8.70495 87.0148 -67.144 -92.2305 56.8635 -81.1757 17.5456 3.99614 -15.992 6.72791e-015 -2.38542e-015 7.4625 5.95833 1.92289 17.8224 -1.05437e-014 7.15625e-015 -30.9039 -18.5116 -5.05371 1.95992 -4.96562e-018 -1.59028e-015 -0.178905 -4.59585 -1.2785 15.5128 -1.16034e-014 1.90833e-014 -63.2431 -6.97298 -0.395515 -10.7298 57.3782 2.9451 9.32214 12.5 1.03349 -0.229105 153.153 -33.5025 -28.7261 174.157 -18.774 -107.64 -9.11665e-006 40.3546 -24.4954 6.06473 0.66603 -0.0708391 44.4811 -3.15926 12.0965 2.19469 6.42438 -108.906 4.30502e-005 -3.73724 161.76 
8.67023 87.013 -67.1269 -92.2164 56.9208 -81.1449 17.3853 4.02493 -15.9971 -6.41622e-015 0 7.51518 6.13645 1.97637 17.7853 -9.11579e-015 9.54166e-015 -30.9039 -18.4988 -5.06897 1.91571 -3.18892e-015 -3.18055e-015 -0.15055 -4.49216 -1.24983 15.5164 -8.45103e-015 2.06736e-014 -63.2173 -6.9773 -0.437766 -10.7338 57.9082 3.70244 9.7248 12.5829 1.0743 -0.239835 153.273 -33.3227 -28.616 174.207 -18.6741 -107.58 0.000221441 40.2252 -24.6162 6.14181 0.649611 -0.0708388 44.3251 -3.04494 12.0907 2.18947 6.3997 -108.932 5.87816e-005 -3.59853 161.854 
8.64405 87.0012 -67.0819 -92.1945 56.9812 -81.1282 17.3546 4.0226 -16.0631 2.14399e-016 -1.59028e-015 7.67823 6.21391 1.98931 17.6835 -1.65294e-014 9.54166e-015 -30.9039 -18.3647 -5.09044 1.87641 4.77084e-015 0 -0.104457 -4.55546 -1.26962 15.5404 -1.12431e-014 1.74931e-014 -63.4531 -6.97936 -0.537103 -10.6721 58.1583 3.94055 9.79973 12.6043 1.12226 -0.250943 153.397 -33.1988 -28.5914 174.288 -18.3583 -107.621 2.57287e-005 39.9744 -24.6654 6.20141 0.647699 -0.0708388 44.1624 -2.9987 12.0664 2.18824 6.36317 -109.023 -1.08061e-005 -3.56391 161.88 
8.62475 86.9965 -67.0631 -92.1677 57.0246 -81.1324 17.4203 3.99548 -16.1829 6.31182e-015 7.95139e-016 7.96463 6.18965 1.96561 17.5495 -1.70054e-014 8.74653e-015 -30.9039 -18.2509 -5.11918 1.86026 3.18238e-015 1.59028e-015 -0.0657404 -4.65889 -1.29909 15.5466 -4.46925e-015 1.90833e-014 -63.6382 -7.00684 -0.608842 -10.5992 57.9705 3.67741 9.56557 12.5582 1.13367 -0.252536 153.552 -33.1789 -28.5864 174.298 -18.2848 -107.655 -2.16459e-005 39.7351 -24.7055 6.19907 0.633182 -0.068783 44.1315 -3.01815 12.0006 2.1745 6.30017 -109.086 -2.38729e-005 -3.54136 161.86 
8.5996 86.9904 -67.0149 -92.139 57.0111 -81.158 17.5138 3.95597 -16.3333 3.447e-015 -1.59028e-015 8.32139 6.09164 1.91543 17.389 -1.23466e-014 1.03368e-014 -30.9039 -18.2558 -5.15132 1.87256 3.17927e-015 -1.59028e-015 -0.0462736 -4.71489 -1.31202 15.5156 -1.88128e-014 1.90833e-014 -63.6927 -7.05577 -0.612965 -10.5463 57.742 3.33373 9.22083 12.5146 1.09507 -0.243014 153.626 -33.2392 -28.5467 174.249 -18.4904 -107.617 0.000604333 39.6905 -24.6684 6.15582 0.576063 -0.0621266 44.1732 -3.04755 11.9205 2.16946 6.28445 -109.089 7.72331e-005 -3.46906 161.859 
8.57577 86.9729 -66.9786 -92.1174 56.9166 -81.1739 17.532 3.92248 -16.4753 2.41345e-016 -1.59028e-015 8.62951 5.97704 1.85521 17.1819 -4.93303e-015 1.03368e-014 -30.9039 -18.435 -5.17799 1.90562 -1.59152e-015 -1.59028e-015 -0.0446831 -4.67501 -1.29477 15.4464 -8.7853e-015 2.22639e-014 -63.769 -7.08995 -0.554226 -10.5214 58.4494 3.73752 9.13976 12.6195 1.02321 -0.229068 153.368 -33.2834 -28.429 174.269 -18.5902 -107.473 -5.64823e-005 40.0743 -24.3549 6.15825 0.443453 -0.0478364 44.0304 -2.97769 11.9037 2.2316 6.47685 -109.058 1.16893e-005 -3.31536 161.982 
8.55491 86.965 -66.9367 -92.1237 56.8561 -81.1437 17.502 3.92175 -16.5851 6.56042e-015 -7.95139e-016 8.81415 5.96891 1.84135 17.0833 -1.18707e-014 1.11319e-014 -30.904 -18.4605 -5.18266 1.90337 0 0 -0.0285587 -4.6282 -1.27943 15.4197 -1.44199e-014 1.59028e-014 -63.4256 -7.14664 -0.636405 -10.436 58.3031 3.43775 8.91273 12.673 1.05986 -0.238336 153.269 -33.4943 -28.3452 174.044 -19.2691 -107.544 -0.0001734 40.2446 -24.49 6.11166 0.481444 -0.0515532 44.0222 -3.08322 11.7609 2.2635 6.60915 -108.954 0.000134425 -3.37845 161.955 
8.53359 86.9606 -66.8927 -92.1214 56.7999 -81.1166 17.4619 3.90346 -16.6569 3.47042e-015 -1.59028e-015 8.95573 5.94439 1.81996 16.962 3.90852e-015 1.27222e-014 -30.9042 -18.5349 -5.20481 1.91211 9.53095e-019 1.59028e-015 -0.0343389 -4.59241 -1.26836 15.4067 5.83042e-015 2.06736e-014 -63.511 -7.13647 -0.679899 -10.4008 58.3763 3.39587 8.5578 12.4605 1.03438 -0.228741 153.357 -33.6665 -28.408 174.052 -19.2669 -107.523 -3.98332e-005 40.2885 -24.484 6.01026 0.483675 -0.0509525 44.032 -3.17132 11.6757 2.26093 6.63804 -108.857 0.00011904 -3.44553 161.829 
8.50505 86.9496 -66.8414 -92.1058 56.7545 -81.1047 17.4471 3.88418 -16.687 5.05563e-016 -3.18055e-015 9.03186 5.91402 1.80242 16.89 -9.59173e-015 8.74653e-015 -30.9043 -18.6374 -5.22721 1.93131 1.5884e-015 -1.59028e-015 -0.0677417 -4.52952 -1.25184 15.4177 -2.11687e-014 1.43125e-014 -63.4557 -7.09732 -0.699431 -10.4044 58.5722 3.52678 8.3433 12.2987 1.06153 -0.231475 153.491 -33.7028 -28.4304 174.275 -18.7337 -107.335 -0.00113199 40.158 -24.2267 5.91947 0.476393 -0.0494106 44.0838 -3.25243 11.6664 2.25965 6.64232 -108.836 -2.58697e-005 -3.48638 161.786 
8.47483 86.9487 -66.7909 -92.0851 56.737 -81.0975 17.452 3.86096 -16.681 -9.66154e-015 0 9.03516 5.90106 1.79608 16.8694 -1.60535e-014 1.03368e-014 -30.9044 -18.7069 -5.24798 1.95344 1.59364e-015 1.59028e-015 -0.120972 -4.48397 -1.24179 15.4481 -1.40735e-015 2.06736e-014 -63.1703 -7.07906 -0.726852 -10.4155 58.6744 3.53932 8.10689 12.2599 1.13548 -0.246726 153.547 -33.7174 -28.4373 174.459 -18.3263 -107.148 -0.000488908 40.0797 -23.9279 5.87578 0.503532 -0.0518223 44.159 -3.36936 11.7299 2.27916 6.66116 -108.937 0.00144728 -3.40428 162.016 
